<svg width="515" height="493" viewBox="0 0 515 493" fill="none" xmlns="http://www.w3.org/2000/svg">
<path d="M331.887 1.38923L511.843 249.473L219.303 464.856L26.1867 274.904L331.887 1.38923Z" fill="url(#paint0_linear)"/>
<path d="M66 201.05L367.143 62L474 414L145.657 402.331L66 201.05Z" fill="url(#paint1_linear)"/>
<path d="M64 163L228 14L515 197L328 463L64 163Z" fill="url(#paint2_linear)"/>
<rect x="156" y="105" width="266" height="266" fill="url(#paint3_linear)"/>
<path d="M282.957 219.736C282.957 231.984 280.792 242.722 276.463 251.95C272.133 261.179 265.924 268.299 257.835 273.312C249.803 278.326 240.574 280.832 230.149 280.832C219.839 280.832 210.639 278.354 202.549 273.398C194.46 268.442 188.194 261.378 183.75 252.207C179.307 242.978 177.057 232.382 177 220.419V214.267C177 202.019 179.193 191.253 183.58 181.967C188.023 172.625 194.261 165.476 202.293 160.52C210.382 155.507 219.611 153 229.979 153C240.346 153 249.546 155.507 257.579 160.52C265.668 165.476 271.906 172.625 276.292 181.967C280.735 191.253 282.957 201.991 282.957 214.182V219.736ZM256.98 214.096C256.98 201.051 254.645 191.139 249.974 184.36C245.302 177.581 238.637 174.191 229.979 174.191C221.377 174.191 214.74 177.552 210.069 184.274C205.398 190.939 203.034 200.738 202.977 213.669V219.736C202.977 232.439 205.312 242.294 209.983 249.301C214.655 256.308 221.377 259.812 230.149 259.812C238.751 259.812 245.359 256.451 249.974 249.729C254.588 242.95 256.924 233.094 256.98 220.163V214.096Z" fill="url(#paint4_linear)"/>
<path d="M347.642 233.579H327.22V279.123H301.585V154.709H347.813C362.51 154.709 373.847 157.985 381.822 164.536C389.797 171.087 393.785 180.344 393.785 192.307C393.785 200.795 391.933 207.887 388.23 213.583C384.585 219.223 379.03 223.723 371.568 227.084L398.484 277.927V279.123H370.97L347.642 233.579ZM327.22 212.814H347.898C354.336 212.814 359.32 211.191 362.852 207.944C366.384 204.64 368.15 200.111 368.15 194.357C368.15 188.49 366.469 183.876 363.108 180.515C359.804 177.154 354.706 175.473 347.813 175.473H327.22V212.814Z" fill="url(#paint5_linear)"/>
<path d="M400.651 300.377V317H299.651V300.377H400.651Z" fill="url(#paint6_linear)"/>
<defs>
<linearGradient id="paint0_linear" x1="132" y1="96" x2="413.5" y2="377.5" gradientUnits="userSpaceOnUse">
<stop stop-color="#DF6053"/>
<stop offset="1" stop-color="#D73828"/>
</linearGradient>
<linearGradient id="paint1_linear" x1="75" y1="74" x2="520" y2="440" gradientUnits="userSpaceOnUse">
<stop stop-color="#121754"/>
<stop offset="1" stop-color="#0A0D2F"/>
</linearGradient>
<linearGradient id="paint2_linear" x1="130" y1="84" x2="499.5" y2="446.5" gradientUnits="userSpaceOnUse">
<stop stop-color="#DA8F3F"/>
<stop offset="1" stop-color="#B36D23"/>
</linearGradient>
<linearGradient id="paint3_linear" x1="156" y1="105" x2="422" y2="371" gradientUnits="userSpaceOnUse">
<stop stop-color="#333333"/>
<stop offset="1" stop-color="#0D0D0D"/>
</linearGradient>
<linearGradient id="paint4_linear" x1="176.651" y1="128.123" x2="401.651" y2="353.123" gradientUnits="userSpaceOnUse">
<stop stop-color="white"/>
<stop offset="1" stop-color="#D9D9D9"/>
</linearGradient>
<linearGradient id="paint5_linear" x1="176.651" y1="128.123" x2="401.651" y2="353.123" gradientUnits="userSpaceOnUse">
<stop stop-color="white"/>
<stop offset="1" stop-color="#D9D9D9"/>
</linearGradient>
<linearGradient id="paint6_linear" x1="176.651" y1="128.123" x2="401.651" y2="353.123" gradientUnits="userSpaceOnUse">
<stop stop-color="white"/>
<stop offset="1" stop-color="#D9D9D9"/>
</linearGradient>
</defs>
</svg>
