<svg xmlns="http://www.w3.org/2000/svg" width="16" height="16" viewBox="0 0 16 16">
    <path fill="#aca386" d="M.918 15H15V2.5S12.253 1 10.977 1C9.7 1 .918 5 .918 5z"/>
    <path fill="#b76f29" d="M15 4.5v-2S11.792.824 10.977 1c-.816.176-.503.307-.503.5 1.509.748 2.952 1.94 3.017 2 .205.186-.174.5 0 .5.204.281 1.509.5 1.509.5"/>
    <path fill="#815021" d="M15 8.5v-4s-1.135-.588-1.509-.5c-.373.088-.324.253-.503.5s-.503 1-.503 1z"/>
    <path fill="#8a421e" d="M.918 15H15V8.5s-.676-2.338-2.012-3c-.27-.185 0-1 0-1S8.544 7 7.666 8c-.878 1-1.382 3.01-2.221 4-.84.99-1.724 1.61-2.515 2-.79.39-2.012.5-2.012.5z"/>
</svg>