<svg xmlns="http://www.w3.org/2000/svg" xmlns:xlink="http://www.w3.org/1999/xlink" width="16" height="16" viewBox="0 0 16 16">
    <defs>
        <linearGradient xlink:href="#a" id="b" gradientUnits="userSpaceOnUse" x1="219.808" y1="324.482" x2="219.808" y2="369.779"
                        gradientTransform="matrix(.09657 0 0 .09657 -15.304 -21.305)"/>
        <linearGradient y2="368.75" x2="181.407" y1="317.616" x1="181.407" gradientUnits="userSpaceOnUse" id="d"
                        gradientTransform="matrix(.09657 0 0 .09657 -15.304 -21.305)">
            <stop offset="0" stop-color="#f29100"/>
            <stop offset="1" stop-color="#ec670f"/>
        </linearGradient>
        <linearGradient y2="369.779" x2="219.808" y1="324.482" x1="219.808" gradientUnits="userSpaceOnUse" id="a">
            <stop offset="0" stop-color="#f29100"/>
            <stop offset="1" stop-color="#ec670f"/>
        </linearGradient>
        <linearGradient id="c" gradientUnits="userSpaceOnUse" x1="241.314" y1="225.501" x2="241.314" y2="369.749" xlink:href="#a"
                        gradientTransform="matrix(.09657 0 0 .09657 -15.304 -21.305)">
            <stop offset="0" stop-color="#f29100"/>
            <stop offset="1" stop-color="#ec670f"/>
        </linearGradient>
    </defs>
    <path d="M8.32 13.298c-.02-.137.019-.274-.023-.403-.035-.113-.117-.123-.17-.215-.14-.24-.286-.551-.3-.845-.012-.264-.109-.503-.122-.765-.007-.126.008-.256.004-.381a1.195 1.195 0 00-.018-.18c-.003-.016-.014-.084-.02-.11l.034-.082c-.015-.028.28-.02.368-.019.15.002.29.01.438.017.304.015.581.011.877-.034.66-.102.963-.372 1.119-.484.605-.436.883-1.15.883-1.15.1-.224.1-.622.314-.8.252-.21.676-.195.966-.324.17-.075.292-.117.466-.08.128.026.36.175.413-.034-.043-.028-.06-.078-.083-.106.24-.024.005-.579-.09-.69-.146-.17-.39-.249-.649-.317-.307-.082-.587-.176-.877-.12-.506.1-.468-.19-.766-.19-.358 0-.995.018-1.105.366-.052.162-.105.17-.193.294-.076.107.013.2-.025.323-.04.125-.098.566-.158.72-.102.26-.224.586-.448.586-.315.037-.563.05-.818-.043-.154-.056-.412-.143-.54-.197-.587-.248-.684-.518-.684-.518-.063-.105-.229-.273-.291-.492-.068-.242-.184-.443-.23-.57-.049-.13-.165-.338-.256-.564a1.715 1.715 0 00-.4-.611c-.183-.163-.352-.416-.723-.343-.067.014-.308.024-.493.18-.126.105-.165.322-.281.505-.068.106-.186.41-.294.663-.075.176-.11.307-.191.372-.063.05-.142.116-.237.08a.723.723 0 01-.186-.11c-.086-.066-.281-.399-.401-.644a5.506 5.506 0 00-.455-.704c-.185-.248-.293-.31-.566-.31-.586 0-.63.327-.888.804-.113.21-.154.542-.382.803-.13.15-.544.762-.832.867V7.44l-.001.003v4.376-.027c.02-.057.04-.112.062-.16.111-.238.37-.459.513-.702.079-.133.168-.263.22-.403.044-.12.066-.3.13-.403.08-.128.203-.172.33-.192.198-.033.366.285.62.402.108.05.607.226.756.262.247.06.52.108.77.159.134.027.262.043.4.057.124.012.587.028.616.061-.236.12-.374.457-.462.696-.092.249-.157.525-.268.769-.124.269-.383.38-.352.694.012.125.035.256.014.393-.022.145-.08.258-.123.4-.055.185-.12.782-.204.957l.515-.064c.057-.134.11-.7.127-.753.097-.284.225-.517.421-.736.192-.213.182-.489.294-.737.121-.27.285-.487.438-.741.279-.46.462-1.04 1.054-1.158.063-.013.425.248.586.403.184.177.385.382.506.626.234.473.432 1.158.508 1.536.043.217.077.23.224.401.067.079.202.325.246.42.047.1.118.33.174.447.033.07.12.284.182.469l.482-.015c.002.004.01-.001.012.002h.001l-.006-.012a5.354 5.354 0 01-.472-1.572z"
          fill="#fff"/>
    <path d="M8.121 13.865c-.056-.117-.127-.347-.174-.447a2.83 2.83 0 00-.246-.42c-.147-.171-.181-.184-.224-.401-.075-.378-.274-1.063-.508-1.536-.121-.243-.322-.448-.506-.625-.16-.156-.523-.417-.586-.404-.592.118-.775.698-1.053 1.158-.154.254-.317.47-.439.74-.112.25-.102.525-.294.738-.196.22-.324.453-.42.736-.019.054-.07.619-.127.753l.88-.062c.818.056.582.37 1.86.302l2.02-.063a5.76 5.76 0 00-.183-.469z"
          fill="url(#b)" transform="translate(0 .56)"/>
    <path d="M13.98.473H2.02A2.014 2.014 0 00.007 2.487V6.882c.288-.104.703-.718.833-.867.227-.26.268-.593.381-.802.258-.478.302-.806.888-.806.273 0 .382.063.566.311.129.173.351.491.455.704.12.246.315.578.401.645a.72.72 0 00.186.11c.095.035.174-.03.237-.08.081-.065.116-.197.191-.373.109-.253.227-.556.294-.662.116-.183.156-.4.281-.506.185-.155.426-.166.493-.18.372-.073.54.18.724.343.12.107.283.323.4.612.09.225.206.434.255.564.046.126.162.327.23.57.062.218.228.387.292.49 0 0 .096.272.684.52.128.053.385.14.539.196.255.093.503.08.818.043.224 0 .346-.325.448-.586.06-.154.118-.595.158-.72.038-.122-.051-.216.025-.323.089-.125.141-.131.193-.294.11-.348.747-.366 1.105-.366.298 0 .26.29.766.191.29-.057.57.038.878.119.259.069.502.147.648.318.095.11.33.665.09.689.023.028.04.079.083.106-.053.21-.285.06-.413.034-.174-.036-.296.005-.465.08-.29.13-.714.114-.967.325-.214.178-.214.576-.314.799 0 0-.277.714-.883 1.15-.155.113-.459.382-1.118.484-.297.046-.574.05-.878.035-.148-.008-.289-.015-.438-.017-.088 0-.383-.01-.368.018l-.033.082.019.11c.012.066.015.12.018.18.004.125-.01.255-.004.382.013.261.11.5.123.764.013.294.158.605.3.846.053.091.134.101.17.214.04.13.002.266.022.403a5.344 5.344 0 00.478 1.584c.297-.05.594-.156.98-.213.705-.105 1.688-.05 2.319-.11 1.596-.15 2.463.655 3.897.325V2.487A2.014 2.014 0 0013.98.473zM8.014 9.927c-.002-.024-.001-.02.002-.005z"
          fill="url(#c)" transform="translate(0 .56)"/>
    <path d="M3.693 11.777c.111-.243.175-.52.268-.769.088-.238.226-.576.462-.696-.029-.033-.492-.049-.616-.06a4.042 4.042 0 01-.4-.058c-.25-.05-.523-.1-.77-.158a8.11 8.11 0 01-.756-.263c-.254-.117-.422-.435-.62-.402-.128.02-.251.064-.33.192-.064.104-.086.283-.13.403-.052.14-.141.27-.22.403-.143.244-.402.464-.513.702a1.535 1.535 0 00-.061.16V13.946c.13.022.266.05.418.09 1.123.3 1.397.325 2.499.2l.103-.014c.085-.176.15-.773.204-.958.043-.142.101-.255.124-.4.02-.137-.002-.268-.014-.393-.03-.313.228-.425.352-.694z"
          fill="url(#d)" transform="translate(0 .56)"/>
</svg>