<svg xmlns="http://www.w3.org/2000/svg" width="16" height="16" viewBox="0 0 16 16">
  <g fill="none">
    <polygon fill="#9AA7B0" fill-opacity=".8" points="7 1 3 5 7 5"/>
    <polygon fill="#9AA7B0" fill-opacity=".8" points="8 1 8 6 3 6 3 8 13 8 13 1"/>
    <polygon fill="#A16FA5" fill-opacity=".7" points="1 16 16 16 16 9 1 9"/>
    <path fill="#FFFFFF" fill-opacity=".8" d="m 0,0 h 2.0461547 q 0.6075613,0 0.9043581,0.05238 0.300289,0.04888 0.534235,0.2095038 0.237438,0.16062 0.394566,0.429483 0.157128,0.265372 0.157128,0.597086 0,0.359648 -0.195537,0.659937 -0.192045,0.300289 -0.52376,0.450434 0.467892,0.136177 0.719297,0.4644 0.251405,0.328223 0.251405,0.771673 0,0.349173 -0.164112,0.680887 -0.160619,0.328223 -0.44345,0.527252 -0.279338,0.195537 -0.691363,0.240929 -0.258388,0.02793 -1.2465477,0.03492 H 0 Z m 1.0335526,0.8519828 v 1.183697 h 0.6773959 q 0.6040695,0 0.7507223,-0.01746 0.265372,-0.03143 0.415516,-0.18157 0.153636,-0.153636 0.153636,-0.401549 0,-0.237438 -0.132686,-0.384091 -0.129194,-0.150144 -0.3875818,-0.18157 -0.1536362,-0.01746 -0.8834081,-0.01746 z m 0,2.035679 v 1.368759 H 1.990287 q 0.5586771,0 0.7088218,-0.03143 0.230454,-0.0419 0.373615,-0.20252 0.146653,-0.164111 0.146653,-0.436466 0,-0.230455 -0.111736,-0.391074 -0.111735,-0.16062 -0.324731,-0.233946 -0.2095036,-0.07333 -0.9148334,-0.07333 z"  transform="translate(2 10)"/>
    <path fill="#FFFFFF" fill-opacity=".8" d="M0.972767969,1.50152588 C0.972767969,1.13305664 1.284,1 1.845,1 C1.85033333,1 2.23533333,1 3,1 L3,0 C2.26266667,0 1.88266667,0 1.86,0 C0.778,0 0,0.45916748 0,1.45 C0,2.31452637 0.419555664,2.69049072 1.47125244,2.91607666 C2.24158869,3.08131157 2.496155,3.22862939 2.496155,3.548 C2.496155,3.86737061 2.13842773,4 1.47125244,4 C1.46058577,4 1.07016829,4 0.3,4 L0.3,5 C1.07550163,5 1.46591911,5 1.47125244,5 C3.5,5 3.5,4 3.5,3.548 C3.5,2.91607666 3.02026367,2.42071533 2.15869141,2.14685059 C1.29711914,1.87298584 0.972767969,1.86999512 0.972767969,1.50152588 Z" transform="translate(7 10)"/>
  </g>
</svg>
