<svg width="13" height="13" xmlns="http://www.w3.org/2000/svg">
    <defs>
        <linearGradient x1=".811" y1="19.666" x2="29.665" y2="19.666" id="a"
                        gradientTransform="matrix(.43823 0 0 .24894 0 1.447)" gradientUnits="userSpaceOnUse">
            <stop stop-color="#BF9155" offset="0%"/>
            <stop stop-color="#8B582B" offset="100%"/>
        </linearGradient>
        <linearGradient x1="10.488" y1="0" x2="10.488" y2="20.976" id="b"
                        gradientTransform="matrix(.61975 0 0 .17603 0 1.447)" gradientUnits="userSpaceOnUse">
            <stop stop-color="#6F4824" offset="0%"/>
            <stop stop-color="#8F5D2F" offset="100%"/>
        </linearGradient>
    </defs>
    <path d="M13 9c0 1.02-2.91 1.846-6.5 1.846S0 10.02 0 9V3.461h13z" fill="url(#a)" fill-rule="evenodd"/>
    <path d="M0 3.126c0 .926 2.91 1.678 6.5 1.678S13 4.052 13 3.126v1.678h-.13c-.602.766-3.225 1.343-6.37 1.343S.732 5.57.13 4.804H0z"
          opacity=".16" fill="#fff" fill-rule="evenodd"/>
    <ellipse cx="6.5" cy="3.294" rx="6.5" ry="1.846" fill="url(#b)" fill-rule="evenodd"/>
    <ellipse cx="2.763" cy="7.993" fill-opacity=".237" rx=".325" ry=".336" fill-rule="evenodd"/>
    <ellipse cx="2.112" cy="7.657" fill-opacity=".237" rx=".325" ry=".336" fill-rule="evenodd"/>
    <ellipse cx="1.462" cy="7.322" fill-opacity=".237" rx=".325" ry=".336" fill-rule="evenodd"/>
    <path d="M9.425 7.825a.163.168 0 00-.163.168v.336a.163.168 0 00.163.167h.162V9.84a1.137 1.175 0 01-1.137 1.175H3.9a.487.504 0 01-.487-.503v-4.7a.487.504 0 01.487-.503h4.55a1.137 1.175 0 011.138 1.174v1.343zm-.85-.168v-.794a.487.504 0 00-.488-.504H4.426v3.603h3.66a.487.504 0 00.488-.503v-.795H4.713V7.657z"
          fill="#ededed" stroke="#000" stroke-opacity=".332" fill-rule="evenodd" stroke-width=".33"/>
</svg>
