<svg xmlns="http://www.w3.org/2000/svg" width="13" height="13" viewBox="0 0 13 13">
    <path fill="#aca386" d="M0 13h13V1.46S10.464.076 9.286.076C8.107.076 0 3.768 0 3.768z"/>
    <path fill="#b76f29" d="M13 3.307V1.46S10.038-.087 9.286.076c-.753.162-.464.283-.464.461 1.393.69 2.725 1.791 2.785 1.847.19.171-.16.461 0 .461.188.26 1.393.462 1.393.462"/>
    <path fill="#815021" d="M13 7V3.306s-1.048-.543-1.393-.462c-.344.081-.3.234-.464.462-.166.228-.465.923-.465.923z"/>
    <path fill="#8a421e" d="M0 13h13V7s-.624-2.159-1.857-2.77c-.25-.17 0-.923 0-.923S7.04 5.615 6.23 6.537c-.811.924-1.276 2.78-2.05 3.694-.776.913-1.592 1.486-2.323 1.846-.729.36-1.857.461-1.857.461z"/>
</svg>