<svg xmlns="http://www.w3.org/2000/svg" xmlns:xlink="http://www.w3.org/1999/xlink" width="16" height="16">
    <defs>
        <linearGradient xlink:href="#a" id="b" x1="5.898" y1="1.22" x2="5.898" y2="12.271" gradientUnits="userSpaceOnUse"/>
    </defs>
    <linearGradient id="a" gradientUnits="userSpaceOnUse" x1="241.314" y1="225.501" x2="241.314" y2="369.749">
        <stop offset="0" stop-color="#f29100"/>
        <stop offset="1" stop-color="#ec670f"/>
    </linearGradient>
    <path d="M9.263 10.525c-.023-.153.021-.306-.025-.45-.04-.125-.13-.137-.19-.239-.156-.267-.319-.614-.334-.942-.013-.294-.121-.56-.136-.852-.007-.14.01-.286.004-.425a1.33 1.33 0 00-.02-.2l-.02-.123.036-.091c-.016-.032.312-.021.41-.02.166.001.323.01.489.018.338.017.647.013.977-.038.735-.114 1.073-.414 1.246-.539.675-.487.984-1.282.984-1.282.112-.249.111-.692.35-.891.281-.234.754-.218 1.077-.361.189-.084.325-.13.518-.09.144.03.402.196.461-.037-.048-.031-.067-.088-.092-.119.266-.026.005-.644-.1-.768-.163-.19-.435-.277-.724-.354-.343-.09-.654-.196-.977-.132-.564.11-.522-.213-.854-.213-.4 0-1.109.02-1.232.408-.057.18-.116.188-.215.327-.084.12.015.224-.027.36-.044.14-.109.631-.176.803-.114.29-.25.652-.5.652-.35.042-.626.056-.911-.047-.171-.063-.458-.16-.6-.22-.656-.276-.763-.577-.763-.577-.07-.117-.256-.304-.325-.549-.076-.269-.205-.493-.257-.633-.054-.146-.183-.378-.284-.63a1.911 1.911 0 00-.446-.68c-.204-.183-.392-.464-.806-.382-.074.014-.343.026-.55.2-.14.117-.183.359-.313.563-.074.118-.206.456-.327.738-.083.196-.122.343-.213.415-.07.056-.158.129-.264.09a.805.805 0 01-.207-.123c-.096-.074-.313-.445-.447-.719-.116-.237-.363-.592-.506-.784-.206-.276-.327-.346-.631-.346-.653 0-.703.365-.99.897-.126.233-.172.604-.425.895C.783 3.2.32 3.884 0 4v-.003 4.88-.03c.02-.064.043-.125.068-.18.124-.264.412-.51.572-.781.087-.148.187-.293.244-.449.05-.134.074-.333.146-.45.088-.142.226-.19.367-.213.22-.037.409.318.692.448.12.055.676.252.842.292.275.066.58.12.858.177.15.03.292.048.446.063.137.014.654.031.686.069-.263.133-.416.51-.515.775-.103.277-.175.586-.299.857-.137.3-.426.424-.391.773.013.139.038.285.015.438-.025.162-.09.288-.138.445-.06.207-.133.872-.227 1.068l.574-.072h.001c.063-.15.12-.78.141-.84.108-.315.25-.575.47-.819.213-.238.202-.545.327-.822.135-.301.317-.542.488-.825.31-.512.515-1.159 1.174-1.29.07-.015.474.276.653.45.205.196.429.425.564.696.26.527.482 1.29.566 1.711.048.242.086.256.25.448.075.088.225.362.274.467.052.112.13.368.194.498.037.078.133.317.203.523l.536-.017c.002.005.012-.001.014.003h.001a5.968 5.968 0 01-.533-1.765z" fill="url(#b)"/>
    <polygon fill="#40B6E0" points="10 16 16 16 16 10 10 10"/>
</svg>