<svg xmlns="http://www.w3.org/2000/svg" width="16" height="16" viewBox="0 0 16 16">
  <g fill="none" fill-rule="evenodd">
    <path fill="#EFE130" d="M1 1h14v14H1z"/>
    <path fill="#FFFFFF" d="M 0.00698021,5.1165061 V 1.6670674e-7 H 2.1813207 q 0.8201766,0 1.1901286,0.13960452329326 0.3734421,0.13611442 0.5968094,0.48861585 0.2233672,0.35250143 0.2233672,0.80621616 0,0.5758687 -0.338541,0.9528009 Q 3.514544,2.7606797 2.8409521,2.8584029 3.176003,3.0538492 3.39239,3.2876868 3.6122671,3.5215244 3.9822191,4.1183337 L 4.6069494,5.1165061 H 3.3714493 L 2.6245651,4.00316 Q 2.2266922,3.4063506 2.0801074,3.2527857 1.9335227,3.0957306 1.7694874,3.0398888 1.605452,2.9805568 1.2494605,2.9805568 H 1.0400537 V 5.1165061 Z M 1.0400537,2.1638703 h 0.7643348 q 0.7433941,0 0.9283701,-0.062822 0.184976,-0.062822 0.2896794,-0.216387 0.1047034,-0.153565 0.1047034,-0.3839125 0,-0.2582683 -0.1396045,-0.4153234 Q 2.8514225,0.92488016 2.6001343,0.8829988 2.4744902,0.86554824 1.8462699,0.86554824 H 1.0400537 Z"  transform="translate(4.5 9)"/>
    <path fill="#FFFFFF" d="M 0.00349009,5.1165061 V 1.6670674e-7 H 3.7972431 V 0.86554824 H 1.0365636 V 1.999835 H 3.6052869 V 2.861893 H 1.0365636 v 1.3925551 h 2.8584027 v 0.862058 z" transform="translate(10 9)"/>
  </g>
</svg>
