<svg xmlns="http://www.w3.org/2000/svg" width="13" height="13" viewBox="0 0 13 13">
    <defs>
        <linearGradient id="a" x1="5" y1="0" x2="11" y2="12" gradientUnits="userSpaceOnUse">
            <stop stop-color="#E84F4F" offset="0"/>
            <stop stop-color="#DB4646" offset="0.4"/>
            <stop stop-color="#CB3939" offset="1"/>
        </linearGradient>
    </defs>
    <rect x="2" y="2" width="9" height="9" style="fill:#FFF"/>
    <path d="M 2.402 0 C 1.072 0 -2.9605947e-16 1.0716899 0 2.402 L 0 10.597 C 0 11.928 1.0716 13 2.402 13 L 10.597 13 C 11.928 13 13 11.928 13 10.597 L 13 2.402 C 13 1.071 11.928 -2.9605947e-16 10.597 0 L 2.402 0 z M 4.308 3.138 L 6.013 3.138 L 6.013 9.248 C 6.013 9.767 5.593 10.187 5.0742 10.187 L 4.308 10.187 C 3.788 10.187 3.369 9.767 3.369 9.248 L 3.369 4.076 C 3.369 3.556 3.788 3.131 4.308 3.138 z M 8.808 3.222 A 1.589 1.536 0 0 1 10.396 4.759 A 1.5890571 1.536 0 0 1 8.808 6.294 A 1.589 1.536 0 0 1 7.218 4.759 A 1.589 1.536 0 0 1 8.808 3.222 z"
          fill="url(#a)"/>
</svg>
