<svg xmlns="http://www.w3.org/2000/svg" width="16" height="16" viewBox="0 0 16 16">
  <g fill="none" fill-rule="evenodd">
    <polygon fill="#9AA7B0" fill-opacity=".8" points="7 1 3 5 7 5"/>
    <polygon fill="#9AA7B0" fill-opacity=".8" points="8 1 8 6 3 6 3 8 13 8 13 1"/>
    <polygon fill="#0199F1" fill-opacity=".7" points="1 16 16 16 16 9 1 9"/>
    <path fill="#FFFFFF" fill-opacity=".8" d="M 0.00698021,5.1165061 V 1.6670674e-7 H 2.1813207 q 0.8201766,0 1.1901286,0.13960452329326 0.3734421,0.13611442 0.5968094,0.48861585 0.2233672,0.35250143 0.2233672,0.80621616 0,0.5758687 -0.338541,0.9528009 Q 3.514544,2.7606797 2.8409521,2.8584029 3.176003,3.0538492 3.39239,3.2876868 3.6122671,3.5215244 3.9822191,4.1183337 L 4.6069494,5.1165061 H 3.3714493 L 2.6245651,4.00316 Q 2.2266922,3.4063506 2.0801074,3.2527857 1.9335227,3.0957306 1.7694874,3.0398888 1.605452,2.9805568 1.2494605,2.9805568 H 1.0400537 V 5.1165061 Z M 1.0400537,2.1638703 h 0.7643348 q 0.7433941,0 0.9283701,-0.062822 0.184976,-0.062822 0.2896794,-0.216387 0.1047034,-0.153565 0.1047034,-0.3839125 0,-0.2582683 -0.1396045,-0.4153234 Q 2.8514225,0.92488016 2.6001343,0.8829988 2.4744902,0.86554824 1.8462699,0.86554824 H 1.0400537 Z" transform="translate(2 10)"/>
    <path fill="#FFFFFF" fill-opacity=".8" d="M0.972767969,1.50152588 C0.972767969,1.13305664 1.284,1 1.845,1 C1.85033333,1 2.23533333,1 3,1 L3,0 C2.26266667,0 1.88266667,0 1.86,0 C0.778,0 0,0.45916748 0,1.45 C0,2.31452637 0.419555664,2.69049072 1.47125244,2.91607666 C2.24158869,3.08131157 2.496155,3.22862939 2.496155,3.548 C2.496155,3.86737061 2.13842773,4 1.47125244,4 C1.46058577,4 1.07016829,4 0.3,4 L0.3,5 C1.07550163,5 1.46591911,5 1.47125244,5 C3.5,5 3.5,4 3.5,3.548 C3.5,2.91607666 3.02026367,2.42071533 2.15869141,2.14685059 C1.29711914,1.87298584 0.972767969,1.86999512 0.972767969,1.50152588 Z" transform="translate(7 10)"/>
    <path fill="#FFFFFF" fill-opacity=".8" d="M -0.02792093,5.1165061 V 1.6670674e-7 H 1.0051526 V 5.1165061 Z" transform="translate(12 10)"/>
  </g>
</svg>
