<svg xmlns="http://www.w3.org/2000/svg" width="16" height="16" viewBox="0 0 16 16">
  <g fill="none" fill-rule="evenodd">
    <polygon fill="#9AA7B0" fill-opacity=".8" points="7 1 3 5 7 5"/>
    <polygon fill="#9AA7B0" fill-opacity=".8" points="8 1 8 6 3 6 3 8 13 8 13 1"/>
    <polygon fill="#62B543" fill-opacity=".7" points="1 16 16 16 16 9 1 9"/>
    <path fill="#FFFFFF" fill-opacity=".8" d="M -2.0489097e-8,1.6670674e-7 H 1.8881512 q 0.6386907,0 0.9737416,0.0977231732933 0.4502246,0.1326243 0.771315,0.47116528 0.3210904,0.33854098 0.4886159,0.83064698 0.1675254,0.4886158 0.1675254,1.2075791 0,0.6317105 -0.1570551,1.0889153 Q 3.9403378,4.2544481 3.5843462,4.5999693 3.3156075,4.8617278 2.8584027,5.0083126 2.5163716,5.1165061 1.943993,5.1165061 H -2.0489097e-8 Z M 1.0330735,0.86554824 V 4.2544481 h 0.771315 q 0.432774,0 0.6247303,-0.048862 Q 2.6804069,4.1427645 2.8444422,3.9926897 3.0119677,3.8426148 3.1166711,3.5005837 3.2213745,3.1550625 3.2213745,2.5617432 3.2213745,1.968424 3.1166711,1.6508237 3.0119677,1.3332234 2.8235015,1.1552276 2.6350354,0.97723186 2.345356,0.91440982 2.128969,0.86554824 1.4972585,0.86554824 Z"  transform="translate(2 10)"/>
    <path fill="#FFFFFF" fill-opacity=".8" d="M -0.00349013,1.6670674e-7 H 1.0295834 V 2.77115 q 0,0.6596314 0.038391,0.8550778 0.066312,0.3141102 0.3141102,0.5060664 0.2512882,0.1884661 0.6840622,0.1884661 0.4397542,0 0.6631215,-0.1779958 Q 2.9526357,3.9612786 2.9980072,3.6995201 3.0433787,3.4377617 3.0433787,2.830482 V 1.6670674e-7 H 4.0764522 V 2.6873873 q 0,0.9213899 -0.083763,1.3018122 -0.083763,0.3804224 -0.3106201,0.6421809 -0.2233673,0.2617585 -0.6002995,0.4188135 -0.3769322,0.153565 -0.9842119,0.153565 -0.7329238,0 -1.1133461,-0.1675254 Q 0.60727967,4.865218 0.38740254,4.5964792 0.16752541,4.3242504 0.09772315,4.0275908 -0.00349013,3.5878365 -0.00349013,2.7292687 Z" transform="translate(6.5 10)"/>
    <path fill="#FFFFFF" fill-opacity=".8" d="M 0.01396043,5.1165061 V 1.6670674e-7 H 1.019113 L 3.1131809,3.416821 V 1.6670674e-7 H 4.0729621 V 5.1165061 H 3.0363985 L 0.97374156,1.7799579 v 3.3365482 z" transform="translate(11 10)"/>
  </g>
</svg>
