<svg xmlns="http://www.w3.org/2000/svg" xmlns:xlink="http://www.w3.org/1999/xlink" width="16" height="16">
    <defs>
        <linearGradient xlink:href="#a" id="b" x1="5.898" y1="1.22" x2="5.898" y2="12.271" gradientUnits="userSpaceOnUse"/>
    </defs>
    <linearGradient id="a" gradientUnits="userSpaceOnUse" x1="241.314" y1="225.501" x2="241.314" y2="369.749">
        <stop offset="0" stop-color="#f29100"/>
        <stop offset="1" stop-color="#ec670f"/>
    </linearGradient>
    <path d="M 5.8007812 1.2089844 C 5.7267813 1.2229844 5.4589531 1.2342031 5.2519531 1.4082031 C 5.1119531 1.5252031 5.0675 1.7686563 4.9375 1.9726562 C 4.8635 2.0906562 4.7323281 2.4289375 4.6113281 2.7109375 C 4.5283281 2.9069375 4.4894375 3.053 4.3984375 3.125 C 4.3284375 3.181 4.2407656 3.2538438 4.1347656 3.2148438 A 0.805 0.805 0 0 1 3.9277344 3.0917969 C 3.8317344 3.0177969 3.6144688 2.6470469 3.4804688 2.3730469 C 3.3644687 2.1360469 3.1176094 1.7818437 2.9746094 1.5898438 C 2.7686094 1.3138437 2.64775 1.2421875 2.34375 1.2421875 C 1.69075 1.2421875 1.6405156 1.608625 1.3535156 2.140625 C 1.2275156 2.373625 1.1807344 2.7441562 0.92773438 3.0351562 C 0.78273437 3.2001562 0.32 3.884 0 4 L 0 8.8476562 C 0.02 8.7836562 0.043359375 8.7229687 0.068359375 8.6679688 C 0.19235937 8.4039688 0.480625 8.1577187 0.640625 7.8867188 C 0.727625 7.7387188 0.82776563 7.5935 0.88476562 7.4375 C 0.93476563 7.3035 0.95729688 7.1033281 1.0292969 6.9863281 C 1.1172969 6.8443281 1.2554844 6.7964375 1.3964844 6.7734375 C 1.6164844 6.7364375 1.8068438 7.0926562 2.0898438 7.2226562 C 2.2098438 7.2776562 2.7656406 7.4736719 2.9316406 7.5136719 C 3.2066406 7.5796719 3.5110625 7.6344063 3.7890625 7.6914062 C 3.9390625 7.7214063 4.080375 7.7389063 4.234375 7.7539062 C 4.371375 7.7679063 4.889875 7.7842656 4.921875 7.8222656 C 4.658875 7.9552656 4.50525 8.3326563 4.40625 8.5976562 C 4.30325 8.8746562 4.2314219 9.1840781 4.1074219 9.4550781 C 3.9704219 9.7550781 3.6817969 9.8795156 3.7167969 10.228516 C 3.7297969 10.367516 3.7534688 10.513016 3.7304688 10.666016 C 3.7054688 10.828016 3.64175 10.954328 3.59375 11.111328 C 3.53375 11.318328 3.4592344 11.983688 3.3652344 12.179688 L 3.9394531 12.107422 L 3.9414062 12.107422 C 3.9629013 12.056243 3.9810934 11.918104 4 11.796875 L 4 10 L 4.7636719 10 C 4.7966893 9.8749072 4.8238925 9.7488636 4.8789062 9.6269531 C 5.0139062 9.3259531 5.1961875 9.0837812 5.3671875 8.8007812 C 5.6771875 8.2887812 5.8820156 7.6427188 6.5410156 7.5117188 C 6.6110156 7.4967188 7.0143594 7.7869375 7.1933594 7.9609375 C 7.3983594 8.1569375 7.6228125 8.38525 7.7578125 8.65625 C 7.9592067 9.0644606 8.117243 9.5772184 8.2265625 10 L 9.1875 10 C 9.1433161 9.9458458 9.0913561 9.9082351 9.0488281 9.8359375 C 8.8928281 9.5689375 8.7298437 9.2225312 8.7148438 8.8945312 C 8.7018438 8.6005312 8.593125 8.3349688 8.578125 8.0429688 C 8.571125 7.9029688 8.5880312 7.7561875 8.5820312 7.6171875 A 1.33 1.33 0 0 0 8.5625 7.4179688 L 8.5429688 7.2949219 L 8.578125 7.203125 C 8.562125 7.171125 8.8902812 7.1825937 8.9882812 7.1835938 C 9.1542813 7.1845938 9.3105625 7.1931719 9.4765625 7.2011719 C 9.8145625 7.2181719 10.123125 7.2131094 10.453125 7.1621094 C 11.188125 7.0481094 11.526219 6.7480469 11.699219 6.6230469 C 12.374219 6.1360469 12.683594 5.3417969 12.683594 5.3417969 C 12.795594 5.0927969 12.794203 4.6501719 13.033203 4.4511719 C 13.314203 4.2171719 13.788328 4.2328437 14.111328 4.0898438 C 14.300328 4.0058438 14.435906 3.96 14.628906 4 C 14.772906 4.03 15.030844 4.1958906 15.089844 3.9628906 C 15.041844 3.9318906 15.023047 3.87475 14.998047 3.84375 C 15.264047 3.81775 15.003437 3.2001719 14.898438 3.0761719 C 14.735437 2.8861719 14.462828 2.7996563 14.173828 2.7226562 C 13.830828 2.6326563 13.520266 2.5258437 13.197266 2.5898438 C 12.633266 2.6998437 12.67575 2.3769531 12.34375 2.3769531 C 11.94375 2.3769531 11.234328 2.3971562 11.111328 2.7851562 C 11.054328 2.9651563 10.995484 2.9723281 10.896484 3.1113281 C 10.812484 3.2313281 10.911141 3.3366563 10.869141 3.4726562 C 10.825141 3.6126563 10.760359 4.1033906 10.693359 4.2753906 C 10.579359 4.5653906 10.443359 4.9277344 10.193359 4.9277344 C 9.8433594 4.9697344 9.56625 4.9838594 9.28125 4.8808594 C 9.11025 4.8178594 8.8236406 4.7201562 8.6816406 4.6601562 C 8.0256406 4.3841563 7.9199219 4.0820313 7.9199219 4.0820312 C 7.8499219 3.9650313 7.66275 3.7782031 7.59375 3.5332031 C 7.51775 3.2642031 7.3898906 3.0403906 7.3378906 2.9003906 C 7.2838906 2.7543906 7.1537344 2.5234844 7.0527344 2.2714844 A 1.911 1.911 0 0 0 6.6074219 1.5917969 C 6.4034219 1.4087969 6.2147813 1.1269844 5.8007812 1.2089844 z" fill="url(#b)"/>
    <g fill="#40b6e0" fill-rule="evenodd">
        <path d="M5 11h8v1a4 4 0 11-8 0z"/>
        <path d="M10.5 12h4a1.5 1.5 0 010 3h-4a1.5 1.5 0 010-3zm0 1a.5.5 0 000 1h4a.5.5 0 000-1z"/>
    </g>
</svg>