<svg xmlns="http://www.w3.org/2000/svg" width="16" height="16" viewBox="0 0 16 16">
  <g fill="none" fill-rule="evenodd">
    <path fill="#2AC862" d="M1 1h14v14H1z"/>
    <path fill="#FFFFFF" d="M 4.7109375 4.2460938 C 4.6369375 4.2600937 4.3671563 4.2713125 4.1601562 4.4453125 C 4.0201563 4.5623125 3.9776562 4.8057656 3.8476562 5.0097656 C 3.7736563 5.1277656 3.6424844 5.4640937 3.5214844 5.7460938 C 3.4384844 5.9420937 3.3995938 6.0901094 3.3085938 6.1621094 C 3.2385938 6.2181094 3.1509219 6.2909531 3.0449219 6.2519531 A 0.805 0.805 0 0 1 2.8378906 6.1289062 C 2.7418906 6.0549063 2.524625 5.6841563 2.390625 5.4101562 C 2.274625 5.1731562 2.0277656 4.8189531 1.8847656 4.6269531 C 1.6787656 4.3509531 1.5579063 4.2792969 1.2539062 4.2792969 C 1.1380176 4.2792969 1.0591622 4.3042866 0.9765625 4.3261719 L 0.9765625 10.246094 C 0.98408864 10.249931 0.99038542 10.256246 0.99804688 10.259766 C 1.1180469 10.314766 1.6757969 10.510781 1.8417969 10.550781 C 2.1167969 10.616781 2.4212187 10.671516 2.6992188 10.728516 C 2.8492187 10.758516 2.9905312 10.776016 3.1445312 10.791016 C 3.2815313 10.805016 3.7980781 10.821375 3.8300781 10.859375 C 3.5670781 10.992375 3.4154062 11.369766 3.3164062 11.634766 C 3.2134062 11.911766 3.1415781 12.221188 3.0175781 12.492188 C 2.8805781 12.792188 2.5919531 12.916625 2.6269531 13.265625 C 2.6399531 13.404625 2.663625 13.550125 2.640625 13.703125 C 2.615625 13.865125 2.5519063 13.991438 2.5039062 14.148438 C 2.4439062 14.355438 2.3693906 15.020797 2.2753906 15.216797 L 2.8496094 15.144531 L 2.8515625 15.144531 C 2.9145625 14.994531 2.9711875 14.364688 2.9921875 14.304688 C 3.1001875 13.989688 3.2428906 13.728375 3.4628906 13.484375 C 3.6758906 13.246375 3.6640625 12.939109 3.7890625 12.662109 C 3.9240625 12.361109 4.1063438 12.120891 4.2773438 11.837891 C 4.5873437 11.325891 4.7921719 10.679828 5.4511719 10.548828 C 5.5211719 10.533828 5.9245156 10.824047 6.1035156 10.998047 C 6.3085156 11.194047 6.5329688 11.422359 6.6679688 11.693359 C 6.9279687 12.220359 7.150375 12.983297 7.234375 13.404297 C 7.282375 13.646297 7.320375 13.661516 7.484375 13.853516 C 7.559375 13.941516 7.7088125 14.215312 7.7578125 14.320312 C 7.8098125 14.432313 7.8871719 14.688359 7.9511719 14.818359 C 7.9881719 14.896359 8.0842969 15.135797 8.1542969 15.341797 L 8.6914062 15.324219 C 8.6934063 15.329219 8.7030781 15.322172 8.7050781 15.326172 A 5.968 5.968 0 0 1 8.1738281 13.5625 C 8.1508281 13.4095 8.1944375 13.255328 8.1484375 13.111328 C 8.1084375 12.986328 8.0170313 12.975047 7.9570312 12.873047 C 7.8010312 12.606047 7.6380469 12.259641 7.6230469 11.931641 C 7.6100469 11.637641 7.5032813 11.370125 7.4882812 11.078125 C 7.4812812 10.938125 7.4981875 10.793297 7.4921875 10.654297 A 1.33 1.33 0 0 0 7.4726562 10.453125 L 7.4511719 10.330078 L 7.4882812 10.240234 C 7.4722812 10.208234 7.8004375 10.219703 7.8984375 10.220703 C 8.0644375 10.221703 8.2207187 10.230281 8.3867188 10.238281 C 8.7247187 10.255281 9.0332812 10.250219 9.3632812 10.199219 C 10.098281 10.085219 10.436375 9.7851563 10.609375 9.6601562 C 11.284375 9.1731562 11.59375 8.3789062 11.59375 8.3789062 C 11.70575 8.1299063 11.704359 7.6872813 11.943359 7.4882812 C 12.224359 7.2542812 12.698484 7.2699531 13.021484 7.1269531 C 13.210484 7.0429531 13.346063 6.9971094 13.539062 7.0371094 C 13.683063 7.0671094 13.941 7.233 14 7 C 13.952 6.969 13.933203 6.9118594 13.908203 6.8808594 C 14.174203 6.8548594 13.913594 6.2372812 13.808594 6.1132812 C 13.645594 5.9232812 13.372984 5.8367656 13.083984 5.7597656 C 12.740984 5.6697656 12.430422 5.5629531 12.107422 5.6269531 C 11.543422 5.7369531 11.585906 5.4140625 11.253906 5.4140625 C 10.853906 5.4140625 10.144484 5.4342656 10.021484 5.8222656 C 9.9644844 6.0022656 9.9056406 6.0094375 9.8066406 6.1484375 C 9.7226406 6.2684375 9.8212969 6.3737656 9.7792969 6.5097656 C 9.7352969 6.6497656 9.6705156 7.1405 9.6035156 7.3125 C 9.4895156 7.6025 9.3535156 7.9648437 9.1035156 7.9648438 C 8.7535156 8.0068437 8.4764062 8.0209688 8.1914062 7.9179688 C 8.0204063 7.8549688 7.7337969 7.7572656 7.5917969 7.6972656 C 6.9357969 7.4212656 6.828125 7.1191406 6.828125 7.1191406 C 6.758125 7.0021406 6.5729063 6.8153125 6.5039062 6.5703125 C 6.4279063 6.3013125 6.2980938 6.0775 6.2460938 5.9375 C 6.1920937 5.7915 6.0638906 5.5605938 5.9628906 5.3085938 A 1.911 1.911 0 0 0 5.5175781 4.6289062 C 5.3135781 4.4459063 5.1249375 4.1640937 4.7109375 4.2460938 z "/>
  </g>
</svg>
