<svg xmlns="http://www.w3.org/2000/svg" xmlns:xlink="http://www.w3.org/1999/xlink" xml:space="preserve"
     width="40" height="40" viewBox="0 0 40 40">
  <defs>
    <linearGradient id="a">
      <stop offset="0" style="stop-color:#ec670f;stop-opacity:1"/>
        <stop offset="1" style="stop-color:#f29100;stop-opacity:1"/>
    </linearGradient>
      <linearGradient xlink:href="#a" id="b" x1="23" x2="23" y1="38" y2="1"
                      gradientTransform="matrix(1 0 0 .97297 0 1.027)" gradientUnits="userSpaceOnUse"/>
  </defs>
    <path d="M2 2h36v36H2z"
          style="fill:url(#b);fill-opacity:1;stroke:none;stroke-width:.197279;stroke-miterlimit:4;stroke-dasharray:none;stroke-opacity:1"/>
    <path d="M30.207 4.178a2.303 2.303 0 0 0-.305.004c-.138.018-.28.017-.412.07-.229.071-.419.227-.597.383-.166.167-.295.37-.43.562-.051.15-.13.298-.125.46-.065.022-.133-.012-.2-.014a5.594 5.594 0 0 0-.69.015.345.345 0 0 0-.13.065c-.129.136-.19.321-.224.504-.017.118-.054.248.008.359.093.097.22.146.343.191.157.044.32.022.48.028.094.005.188-.01.28-.024-.037.253-.14.488-.223.727-.085.228-.174.452-.275.674-.246.6-.34 1.255-.586 1.855a4.55 4.55 0 0 1-.613 1.08 3.902 3.902 0 0 1-2.215 1.537c-.405.11-.829.18-1.248.127a1.179 1.179 0 0 1-.55-.25c-.155-.156-.277-.34-.407-.515-.51-.633-1.038-1.248-1.565-1.866-.454-.569-.965-1.087-1.437-1.64-.18-.2-.336-.422-.523-.615-.07-.095-.165-.165-.233-.26-.384-.397-.728-.832-1.098-1.242a7.18 7.18 0 0 1-.455-.622c-.103-.125-.194-.26-.295-.388a2.431 2.431 0 0 0-.351-.4 1.394 1.394 0 0 0-.867-.313c-.178 0-.355-.002-.532.012-.395-.01-.781.087-1.164.173-.195.064-.395.117-.582.204a1.297 1.297 0 0 0-.271.115c-.275.134-.538.293-.81.431-.067.042-.124.097-.19.14-.206.133-.396.29-.596.43-.486.377-.967.76-1.445 1.147-.262.206-.52.417-.797.6-.17.133-.38.19-.572.281a8.526 8.526 0 0 1-1.346.48 5.412 5.412 0 0 0-.67.249c-.294.136-.572.303-.85.47-.115.07-.218.159-.334.227-.156.106-.3.23-.453.344-.296.265-.585.539-.859.828-.132.163-.264.325-.39.492-.186.22-.349.459-.489.71-.162.32-.315.65-.404.999-.214.616-.248 1.274-.354 1.914-.01.054-.004.11-.011.164-.028.15.008.304-.02.453-.03.301-.064.603-.092.905-.008.088-.023.176-.033.265v5.276l.23-.208c.325-.292.699-.52 1.069-.748.132-.08.24-.206.394-.244.056-.003.153-.031.166.05.039.248-.091.476-.16.706-.05.13-.123.246-.201.36-.09.125-.217.212-.34.3-.229.185-.462.386-.588.66-.02.06-.035.121-.056.18.001.152-.012.305.013.455.014.124.05.243.086.362.054.116.111.232.172.345.097.145.194.289.309.42.124.132.255.258.383.387.152.155.338.275.486.435h.027a3.886 3.886 0 0 0-.027-.035c-.051-.154-.107-.308-.135-.468-.02-.227.01-.47.147-.657.12-.143.255-.277.38-.416.193-.133.323-.34.413-.554-.01-.1.076-.178.054-.278a.64.64 0 0 0-.244-.306 21.105 21.105 0 0 1-.39-.3c-.09-.064-.186-.141-.223-.251-.044-.114.026-.227.062-.332.153-.257.23-.55.364-.817.058-.12.12-.24.177-.36a.745.745 0 0 1 .743-.436.712.712 0 0 1 .382.193c.08.083.164.18.168.303.004.304.06.605.057.91.02.129.011.259.014.388.005.124-.024.244-.014.368-.026.374-.053.751-.117 1.123-.069.32-.112.647-.178.968-.054.34-.166.665-.275.989-.046.12-.046.256-.1.375a.868.868 0 0 1-.074.154H2v12h36V26H23.217a1.048 1.048 0 0 0-.322-.05c.01-.229.017-.456.013-.684v-2.12c-.004-.151.013-.302.028-.453.003-.324.04-.648.056-.972a8.92 8.92 0 0 1 .149-.9c.1-.424.25-.85.535-1.184a3.566 3.566 0 0 1 1.035-.748c.374-.202.766-.362 1.158-.522l1.225-.474c.09-.019.17-.072.254-.11.192-.088.378-.186.568-.28.343-.167.66-.39.934-.66.051-.054.1-.122.177-.14.18-.02.354-.084.51-.176.148-.105.274-.24.39-.38.172-.173.327-.36.5-.532.064-.067.109-.15.173-.219.282-.348.554-.705.812-1.072.095-.124.162-.269.246-.4.137-.209.233-.44.36-.654.101-.16.174-.333.257-.502.045-.135.094-.269.149-.399.089-.239.171-.48.24-.726.107-.416.208-.837.254-1.264.277-.08.569-.13.814-.293a1.1 1.1 0 0 0 .35-.295c.108-.097.182-.223.27-.338.209-.285.414-.58.671-.822.144-.006.282-.052.426-.05.126-.022.256-.006.383-.01.181.006.356.057.53.109.3.122.571.312.806.537.032.027.07.048.111.06.083.02.154-.04.221-.08a.63.63 0 0 0 .184-.398c.03-.215-.022-.432-.063-.643-.022-.16-.092-.328-.02-.484.081-.157.246-.24.354-.375a.358.358 0 0 0 .076-.336 1.122 1.122 0 0 0-.1-.291c-.073-.21-.21-.386-.345-.559-.387-.475-.89-.87-1.475-1.054a1.15 1.15 0 0 0-.558-.043c-.09.017-.182.03-.272.048-.098.028-.199.04-.299.057-.234.028-.469.064-.705.057-.148-.003-.297.009-.445-.012-.215-.018-.424-.076-.637-.111a4.798 4.798 0 0 1-.74-.21c-.243-.084-.487-.167-.725-.269-.203-.09-.413-.157-.62-.234a4.414 4.414 0 0 0-.903-.162zM10.965 20.13c.23.074.433.214.65.318.253.123.49.277.72.44.141.1.299.171.45.254.122.06.23.147.352.207.142.073.296.118.44.19.214.113.453.167.687.226.23.057.462.101.699.111l.027.03a6.74 6.74 0 0 1 .303 1.872c.02.15-.004.3-.002.45-.036.454-.078.91-.186 1.353-.02.1-.032.202-.064.299-.063.033-.122.077-.182.119H7.895c.123-.207.26-.406.35-.633.082-.154.162-.31.25-.46.183-.333.4-.647.55-.997.219-.347.407-.714.6-1.076.237-.496.511-.972.75-1.467.115-.266.254-.52.376-.783.062-.152.132-.301.194-.453zm7.605 1.941c.081.01.164.047.233.08.183.074.323.222.441.377.34.451.54.99.744 1.512.08.198.141.404.237.596.103.265.201.533.308.797.068.177.158.346.233.521l.021.045h-3.55c.008-.031.017-.063.027-.094.12-.462.275-.915.418-1.37.158-.481.306-.965.468-1.444.037-.137.064-.276.11-.41.052-.186.036-.392.133-.563a.216.216 0 0 1 .097-.045.285.285 0 0 1 .08-.002z"
          style="fill:#00003f;fill-opacity:1;stroke-width:.3;stroke:#fff;stroke-opacity:1;stroke-miterlimit:4;stroke-dasharray:none"/>
    <path d="M15 24.833c-1.332 0-2.519.326-3.558.978-1.032.645-1.832 1.574-2.403 2.79-.564 1.207-.845 2.607-.845 4.2v.8c.007 1.554.296 2.933.866 4.133.095.196.197.384.304.565h4.031a2.977 3.073 0 0 1-.965-.943c-.6-.91-.898-2.192-.898-3.845v-.787c.007-1.683.309-2.956.909-3.823.6-.875 1.454-1.311 2.559-1.311 1.112 0 1.967.44 2.568 1.322.6.881.9 2.17.9 3.866v.789c-.007 1.682-.308 2.962-.9 3.845a2.925 3.019 0 0 1-.92.887h4.01c.11-.192.217-.389.314-.598.556-1.2.834-2.596.834-4.19v-.722c0-1.585-.285-2.981-.856-4.189-.563-1.215-1.365-2.144-2.405-2.789-1.032-.652-2.213-.978-3.545-.978Zm9.198.223v13.243h3.293v-2.988h2.625l1.51 2.988h3.565l-2.002-3.83c.958-.439 1.673-1.023 2.141-1.756.476-.742.713-1.664.713-2.768 0-1.555-.512-2.759-1.536-3.61-1.025-.853-2.481-1.28-4.37-1.28zm3.293 2.701h2.647c.885 0 1.54.219 1.964.655.432.438.648 1.038.648 1.8 0 .749-.226 1.337-.68 1.768-.454.423-1.095.633-1.922.633h-2.657z"
          style="fill:#fff;fill-opacity:1;stroke:none;stroke-width:.101595;stroke-miterlimit:4;stroke-dasharray:none;stroke-opacity:1"/>
</svg>
