<svg xmlns="http://www.w3.org/2000/svg" fill="none" viewBox="0 0 533 84">
  <path fill="url(#paint0_linear)" d="M56.654.237l30.72 42.35-49.938 36.766L4.47 46.927 56.654.237z"/>
  <path fill="url(#paint1_linear)" d="M11.267 34.32l51.406-23.736 18.24 60.087-56.049-1.991-13.598-34.36z"/>
  <path fill="url(#paint2_linear)" d="M10.925 27.825L38.92 2.39l48.993 31.239L55.99 79.036 10.925 27.825z"/>
  <path fill="url(#paint3_linear)" d="M26.63 17.924h45.407v45.407H26.63z"/>
  <path fill="url(#paint4_linear)" d="M48.302 37.51c0 2.09-.37 3.924-1.109 5.499-.739 1.575-1.799 2.79-3.18 3.647-1.37.855-2.946 1.283-4.726 1.283-1.76 0-3.33-.423-4.711-1.269-1.38-.846-2.45-2.052-3.21-3.617-.758-1.576-1.142-3.384-1.151-5.426v-1.05c0-2.091.374-3.93 1.123-5.514.758-1.595 1.823-2.816 3.194-3.662 1.381-.855 2.956-1.283 4.726-1.283s3.34.428 4.712 1.283c1.38.846 2.445 2.067 3.194 3.662.759 1.585 1.138 3.418 1.138 5.499v.948zm-4.434-.963c0-2.227-.4-3.919-1.197-5.076-.797-1.157-1.935-1.736-3.413-1.736-1.468 0-2.601.574-3.398 1.721-.798 1.138-1.201 2.81-1.211 5.018v1.036c0 2.168.399 3.85 1.196 5.047.797 1.196 1.945 1.794 3.442 1.794 1.469 0 2.597-.574 3.385-1.721.787-1.158 1.186-2.84 1.196-5.047v-1.036z"/>
  <path fill="url(#paint5_linear)" d="M59.344 39.873h-3.486v7.775h-4.376V26.409h7.891c2.509 0 4.444.56 5.806 1.678 1.36 1.118 2.042 2.698 2.042 4.74 0 1.45-.316 2.66-.949 3.633-.622.962-1.57 1.73-2.844 2.304l4.595 8.68v.203h-4.697l-3.982-7.774zm-3.486-3.545h3.53c1.099 0 1.95-.277 2.552-.831.603-.564.905-1.337.905-2.32 0-1.001-.287-1.789-.86-2.362-.565-.574-1.435-.861-2.612-.861h-3.515v6.374z"/>
  <path fill="url(#paint6_linear)" d="M68.393 51.276v2.837H51.152v-2.837h17.24z"/>
  <path fill="#000" d="M120.68 45.508h-5.602V58h-7.031V23.875h12.68c4.031 0 7.14.898 9.328 2.695 2.187 1.797 3.281 4.336 3.281 7.617 0 2.329-.508 4.274-1.524 5.836-1 1.547-2.523 2.782-4.57 3.704l7.383 13.945V58h-7.547l-6.398-12.492zm-5.602-5.696h5.672c1.766 0 3.133-.445 4.102-1.335.968-.907 1.453-2.149 1.453-3.727 0-1.61-.461-2.875-1.383-3.797-.906-.922-2.305-1.383-4.195-1.383h-5.649v10.242zM149.93 58.47c-3.719 0-6.75-1.14-9.094-3.422-2.328-2.281-3.492-5.32-3.492-9.117v-.657c0-2.546.492-4.82 1.476-6.82.985-2.016 2.375-3.562 4.172-4.64 1.813-1.094 3.875-1.641 6.188-1.641 3.468 0 6.195 1.094 8.179 3.281 2 2.188 3 5.29 3 9.305v2.765h-16.148c.219 1.657.875 2.985 1.969 3.985 1.109 1 2.508 1.5 4.195 1.5 2.609 0 4.648-.946 6.117-2.836l3.328 3.726c-1.015 1.438-2.39 2.563-4.125 3.375-1.734.797-3.656 1.196-5.765 1.196zm-.774-20.813c-1.344 0-2.437.453-3.281 1.36-.828.906-1.359 2.203-1.594 3.89h9.422v-.539c-.031-1.5-.437-2.656-1.219-3.469-.781-.828-1.89-1.242-3.328-1.242zM178.922 58c-.313-.61-.539-1.367-.68-2.273-1.64 1.828-3.773 2.742-6.398 2.742-2.485 0-4.547-.719-6.188-2.157-1.625-1.437-2.437-3.25-2.437-5.437 0-2.688.992-4.75 2.976-6.188 2-1.437 4.883-2.164 8.649-2.18h3.117v-1.452c0-1.172-.305-2.11-.914-2.813-.594-.703-1.539-1.054-2.836-1.054-1.141 0-2.039.273-2.695.82-.641.547-.961 1.297-.961 2.25h-6.774c0-1.469.453-2.828 1.36-4.078.906-1.25 2.187-2.227 3.843-2.93 1.657-.719 3.516-1.078 5.578-1.078 3.126 0 5.602.789 7.43 2.367 1.844 1.563 2.766 3.766 2.766 6.61V52.14c.015 2.406.351 4.226 1.008 5.46V58h-6.844zm-5.602-4.71c1 0 1.922-.22 2.766-.657.844-.453 1.469-1.055 1.875-1.805v-4.36h-2.531c-3.391 0-5.196 1.173-5.414 3.516l-.024.399c0 .844.297 1.539.891 2.086.594.547 1.406.82 2.437.82zm30.375-2.298c0-.828-.414-1.476-1.242-1.945-.812-.484-2.125-.914-3.937-1.29-6.032-1.265-9.047-3.827-9.047-7.687 0-2.25.929-4.125 2.789-5.625 1.875-1.515 4.32-2.273 7.336-2.273 3.218 0 5.789.758 7.711 2.273 1.937 1.516 2.906 3.485 2.906 5.907h-6.773c0-.97-.313-1.766-.938-2.391-.625-.64-1.602-.961-2.93-.961-1.14 0-2.023.258-2.648.773-.625.516-.938 1.172-.938 1.97 0 .75.352 1.359 1.055 1.827.719.453 1.922.852 3.609 1.196 1.688.328 3.11.703 4.266 1.125 3.578 1.312 5.367 3.586 5.367 6.82 0 2.312-.992 4.187-2.976 5.625-1.985 1.422-4.547 2.133-7.688 2.133-2.125 0-4.015-.375-5.672-1.125-1.64-.766-2.929-1.805-3.867-3.117-.937-1.329-1.406-2.758-1.406-4.29h6.422c.062 1.204.508 2.126 1.336 2.766.828.64 1.937.961 3.328.961 1.297 0 2.273-.242 2.93-.727.671-.5 1.007-1.148 1.007-1.945zm9.914-5.906c0-2.516.485-4.758 1.453-6.727.969-1.968 2.36-3.492 4.172-4.57 1.828-1.078 3.946-1.617 6.352-1.617 3.422 0 6.211 1.047 8.367 3.14 2.172 2.094 3.383 4.938 3.633 8.532l.047 1.734c0 3.89-1.086 7.016-3.258 9.375-2.172 2.344-5.086 3.516-8.742 3.516-3.656 0-6.578-1.172-8.766-3.516-2.172-2.344-3.258-5.531-3.258-9.562v-.305zm6.774.492c0 2.406.453 4.25 1.359 5.531.906 1.266 2.203 1.899 3.891 1.899 1.64 0 2.922-.625 3.844-1.875.921-1.266 1.382-3.281 1.382-6.047 0-2.36-.461-4.188-1.382-5.484-.922-1.297-2.219-1.946-3.891-1.946-1.656 0-2.938.649-3.844 1.946-.906 1.28-1.359 3.273-1.359 5.976zm27.656-12.937l.211 2.93c1.812-2.266 4.242-3.4 7.289-3.4 2.688 0 4.688.79 6 2.368 1.313 1.578 1.984 3.938 2.016 7.078V58h-6.774V41.781c0-1.437-.312-2.476-.937-3.117-.625-.656-1.664-.984-3.117-.984-1.907 0-3.336.812-4.289 2.437V58h-6.774V32.64h6.375zM288.586 58h-7.031V23.875h7.031V58zm6.539 0V23.875h10.5c3 0 5.68.68 8.039 2.04 2.375 1.343 4.227 3.265 5.555 5.765 1.328 2.484 1.992 5.312 1.992 8.484v1.57c0 3.172-.656 5.993-1.969 8.461-1.297 2.47-3.133 4.383-5.508 5.742-2.375 1.36-5.054 2.047-8.039 2.063h-10.57zm7.031-28.43v22.782h3.399c2.75 0 4.851-.899 6.304-2.696 1.453-1.797 2.196-4.367 2.227-7.71V40.14c0-3.47-.719-6.094-2.156-7.875-1.438-1.797-3.539-2.696-6.305-2.696h-3.469zm44.719 13.64h-13.5v9.142h15.844V58h-22.875V23.875h22.828v5.695h-15.797v8.133h13.5v5.508zm25.734 7.759h-12.328L357.938 58h-7.477l12.703-34.125h6.516L382.453 58h-7.476l-2.368-7.031zm-10.429-5.696h8.531L366.422 32.5l-4.242 12.773zm42.445.704V58h-7.031V23.875h13.312c2.563 0 4.813.469 6.75 1.406 1.953.938 3.453 2.274 4.5 4.008 1.047 1.719 1.571 3.68 1.571 5.883 0 3.344-1.149 5.984-3.446 7.922-2.281 1.922-5.445 2.883-9.492 2.883h-6.164zm0-5.696h6.281c1.86 0 3.274-.437 4.242-1.312.985-.875 1.477-2.125 1.477-3.75 0-1.672-.492-3.024-1.477-4.055-.984-1.031-2.343-1.562-4.078-1.594h-6.445v10.711zM435.281 58h-6.797V22h6.797v36zm20.789-2.578c-1.672 2.031-3.984 3.047-6.937 3.047-2.719 0-4.797-.782-6.235-2.344-1.421-1.563-2.148-3.852-2.179-6.867V32.64h6.773v16.382c0 2.641 1.203 3.961 3.61 3.961 2.296 0 3.875-.797 4.734-2.39V32.64h6.797V58h-6.375l-.188-2.578zm10.688-10.29c0-3.89.922-7.023 2.765-9.398 1.86-2.375 4.36-3.562 7.5-3.562 2.782 0 4.946.953 6.493 2.86l.281-2.391h6.141v24.515c0 2.219-.508 4.149-1.524 5.79-1 1.64-2.414 2.89-4.242 3.75-1.828.859-3.969 1.288-6.422 1.288-1.859 0-3.672-.375-5.438-1.125-1.765-.734-3.101-1.687-4.007-2.859l3-4.125c1.687 1.89 3.734 2.836 6.14 2.836 1.797 0 3.196-.484 4.196-1.453 1-.953 1.5-2.313 1.5-4.078v-1.36c-1.563 1.766-3.618 2.649-6.164 2.649-3.047 0-5.516-1.188-7.407-3.563-1.875-2.39-2.812-5.554-2.812-9.492v-.281zm6.773.493c0 2.297.461 4.102 1.383 5.414.922 1.297 2.188 1.945 3.797 1.945 2.062 0 3.539-.773 4.43-2.32V40c-.907-1.547-2.368-2.32-4.383-2.32-1.625 0-2.906.664-3.844 1.992-.922 1.328-1.383 3.312-1.383 5.953zM502.312 58h-6.796V32.64h6.796V58zm-7.195-31.922c0-1.015.336-1.851 1.008-2.508.687-.656 1.617-.984 2.789-.984 1.156 0 2.078.328 2.766.984.687.657 1.031 1.492 1.031 2.508 0 1.031-.352 1.875-1.055 2.531-.687.657-1.601.985-2.742.985s-2.062-.328-2.766-.985c-.687-.656-1.031-1.5-1.031-2.53zm19.031 6.563l.211 2.93c1.813-2.266 4.243-3.4 7.289-3.4 2.688 0 4.688.79 6 2.368 1.313 1.578 1.985 3.938 2.016 7.078V58h-6.773V41.781c0-1.437-.313-2.476-.938-3.117-.625-.656-1.664-.984-3.117-.984-1.906 0-3.336.812-4.289 2.437V58h-6.774V32.64h6.375z"/>
  <defs>
    <linearGradient id="paint0_linear" x1="22.533" x2="70.586" y1="16.388" y2="64.441" gradientUnits="userSpaceOnUse">
      <stop stop-color="#DF6053"/>
      <stop offset="1" stop-color="#D73828"/>
    </linearGradient>
    <linearGradient id="paint1_linear" x1="12.803" x2="88.766" y1="12.632" y2="75.11" gradientUnits="userSpaceOnUse">
      <stop stop-color="#121754"/>
      <stop offset="1" stop-color="#0A0D2F"/>
    </linearGradient>
    <linearGradient id="paint2_linear" x1="22.192" x2="85.267" y1="14.339" y2="76.219" gradientUnits="userSpaceOnUse">
      <stop stop-color="#DA8F3F"/>
      <stop offset="1" stop-color="#B36D23"/>
    </linearGradient>
    <linearGradient id="paint3_linear" x1="26.63" x2="72.037" y1="17.924" y2="63.331" gradientUnits="userSpaceOnUse">
      <stop stop-color="#333"/>
      <stop offset="1" stop-color="#0D0D0D"/>
    </linearGradient>
    <linearGradient id="paint4_linear" x1="30.155" x2="68.564" y1="21.871" y2="60.28" gradientUnits="userSpaceOnUse">
      <stop stop-color="#fff"/>
      <stop offset="1" stop-color="#D9D9D9"/>
    </linearGradient>
    <linearGradient id="paint5_linear" x1="30.155" x2="68.564" y1="21.871" y2="60.28" gradientUnits="userSpaceOnUse">
      <stop stop-color="#fff"/>
      <stop offset="1" stop-color="#D9D9D9"/>
    </linearGradient>
    <linearGradient id="paint6_linear" x1="30.155" x2="68.564" y1="21.871" y2="60.28" gradientUnits="userSpaceOnUse">
      <stop stop-color="#fff"/>
      <stop offset="1" stop-color="#D9D9D9"/>
    </linearGradient>
  </defs>
</svg>
