<?xml version="1.0" encoding="UTF-8"?>
<svg fill="none" viewBox="0 0 771 236" xmlns="http://www.w3.org/2000/svg">
<g filter="url(#i)">
<path d="M0 0h218v218H0V0z" fill="#000"/>
</g>
<path d="M0 0h218v218H0V0z" fill="#DD4B39"/>
<path d="M.505.505h216.99v216.99H.505V.505z" clip-rule="evenodd" stroke="#D74837"/>
<path d="M129.314 198.824h-24.652L92.515 175.72H76.318v23.104H54.524V115.34h37.514c22.152 0 34.775 10.718 34.775 29.297 0 12.624-5.24 21.913-14.886 26.915l17.387 27.272zm-52.996-66.096v25.605h15.84c8.812 0 13.933-4.526 13.933-12.981 0-8.218-5.121-12.624-13.933-12.624h-15.84zm64.429-17.388h65.858v17.388h-44.064v15.601h39.777v17.268l-39.777.119v15.721h45.255v17.387h-67.049V115.34z" fill="#fff"/>
<g filter="url(#h)">
<path d="M129.314 198.824h-24.652L92.515 175.72H76.318v23.104H54.524V115.34h37.514c22.152 0 34.775 10.718 34.775 29.297 0 12.624-5.24 21.913-14.886 26.915l17.387 27.272zm-52.996-66.096v25.605h15.84c8.812 0 13.933-4.526 13.933-12.981 0-8.218-5.121-12.624-13.933-12.624h-15.84zm64.429-17.388h65.858v17.388h-44.064v15.601h39.777v17.268l-39.777.119v15.721h45.255v17.387h-67.049V115.34z" fill="#fff"/>
</g>
<g filter="url(#g)">
<path d="M270 69.835c0-29.096 0-43.637 7.408-53.841a38.852 38.852 0 018.586-8.586C296.188 0 310.739 0 339.831 0h78.332c29.097 0 43.637 0 53.842 7.408a38.773 38.773 0 018.581 8.586c7.412 10.198 7.412 24.745 7.412 53.841v78.33c0 29.096 0 43.637-7.412 53.841a38.658 38.658 0 01-8.581 8.581C461.806 218 447.26 218 418.163 218h-78.332c-29.092 0-43.637 0-53.837-7.413a38.744 38.744 0 01-8.586-8.581C270 191.808 270 177.261 270 148.165v-78.33z" fill="url(#d)"/>
</g>
<g filter="url(#f)">
<path d="m417.73 105.53c14.294 0 25.883-11.589 25.883-25.883 0-14.295-11.589-25.883-25.883-25.883-14.295 0-25.883 11.588-25.883 25.883 0 14.294 11.588 25.883 25.883 25.883z" fill="#fff"/>
</g>
<path d="M328.787 78.208c0-8.217 0-12.327 1.605-15.47a14.654 14.654 0 016.413-6.422c3.139-1.597 7.249-1.597 15.47-1.597l18.75-1.823 1.797 1.823v95.397c0 6.837-.496 9.911-1.614 12.604a14.683 14.683 0 01-7.944 7.943c-2.695 1.118-5.62 1.465-12.456 1.465-6.837 0-10.258 0-12.952-1.118a14.664 14.664 0 01-7.944-7.943c-1.118-2.695-1.118-6.116-1.118-12.951l-.007-71.908z" fill="#000" fill-opacity=".2"/>
<g filter="url(#e)">
<path d="M326.957 76.372c0-8.217 0-12.327 1.605-15.47a14.653 14.653 0 016.413-6.422c3.139-1.596 7.249-1.596 15.47-1.596h20.547v95.395c0 6.838 0 10.259-1.117 12.953a14.668 14.668 0 01-7.944 7.942c-2.696 1.118-6.117 1.118-12.953 1.118-6.837 0-10.258 0-12.952-1.118a14.664 14.664 0 01-7.944-7.942c-1.118-2.695-1.118-6.116-1.118-12.953l-.007-71.907z" fill="#fff"/>
</g>
<g clip-path="url(#j)">
<path d="M665.943 149.561c-.333-1.999.333-3.997-.333-5.996-.5-1.665-1.666-1.832-2.499-3.164-2.165-3.498-4.163-8.161-4.496-12.491-.167-3.831-1.666-7.495-1.832-11.326-.167-1.832.166-3.83 0-5.662 0-.833-.167-1.666-.334-2.665 0-.167-.166-1.166-.333-1.666l.5-1.165c-.167-.334 4.164-.334 5.496-.334 2.165 0 4.33.167 6.495.167 4.497.167 8.661.167 12.991-.5 9.827-1.499 14.324-5.496 16.489-7.161 8.993-6.496 12.991-16.988 12.991-16.988 1.498-3.331 1.498-9.16 4.663-11.825 3.664-3.165 9.993-2.832 14.323-4.83 2.498-1.166 4.33-1.666 6.829-1.166 1.832.333 5.329 2.665 6.162-.5-.666-.333-.833-1.166-1.166-1.499 3.498-.333 0-8.494-1.332-10.16-2.165-2.497-5.83-3.663-9.66-4.662-4.497-1.166-8.661-2.665-12.991-1.833-7.495 1.5-6.995-2.83-11.325-2.83-5.33 0-14.657.332-16.322 5.329-.833 2.331-1.499 2.498-2.831 4.33-1.166 1.499.166 2.998-.334 4.83-.666 1.832-1.499 8.327-2.331 10.66-1.499 3.83-3.331 8.66-6.662 8.66-4.664.5-8.328.666-12.158-.667-2.332-.832-6.163-2.165-7.995-2.83-8.66-3.665-10.159-7.662-10.159-7.662-.999-1.5-3.331-3.997-4.33-7.328-1-3.498-2.665-6.496-3.331-8.494-.667-1.999-2.499-4.997-3.831-8.328-1.666-4.33-4.164-7.495-5.996-8.993-2.665-2.332-5.163-6.163-10.659-4.997-.999.167-4.497.333-7.328 2.665-1.832 1.499-2.498 4.83-4.164 7.495-.999 1.499-2.665 5.995-4.33 9.826-1.166 2.665-1.666 4.497-2.831 5.496-1 .666-2.166 1.666-3.498 1.166-.833-.333-1.832-.833-2.665-1.666-1.332-.999-4.163-5.995-5.995-9.493-1.499-3.164-4.83-7.828-6.662-10.492-2.665-3.665-4.331-4.664-8.328-4.664-8.66 0-9.327 4.83-13.157 11.992-1.666 3.164-2.332 7.994-5.663 11.825-1.999 2.165-7.994 11.325-12.325 12.824v64.788-.334c.334-.832.5-1.665.833-2.331 1.666-3.498 5.496-6.829 7.661-10.326 1.166-1.999 2.499-3.831 3.165-5.996.666-1.832.999-4.497 1.998-5.996 1.166-1.832 2.998-2.498 4.83-2.831 2.998-.5 5.496 4.164 9.161 5.996 1.665.666 8.993 3.331 11.158 3.83 3.664.833 7.662 1.666 11.326 2.332 1.998.333 3.83.666 5.995.833 1.832.166 8.661.333 9.161.832-3.498 1.833-5.496 6.829-6.829 10.327-1.332 3.664-2.332 7.827-3.997 11.325-1.832 3.997-5.663 5.663-5.163 10.326.166 1.832.5 3.831.166 5.829-.333 2.165-1.165 3.831-1.832 5.829-.832 2.665-1.832 11.492-2.997 14.157l7.661-.999c.833-1.999 1.665-10.326 1.832-11.159 1.499-4.164 3.331-7.661 6.162-10.826 2.832-3.164 2.665-7.161 4.33-10.992 1.832-3.997 4.164-7.162 6.496-10.992 4.164-6.829 6.828-15.323 15.655-17.155 1-.166 6.329 3.664 8.661 5.996 2.665 2.665 5.663 5.663 7.495 9.327 3.497 6.995 6.329 17.154 7.494 22.65.667 3.165 1.166 3.331 3.331 5.996 1 1.166 2.998 4.83 3.665 6.162.666 1.499 1.665 4.83 2.498 6.662.499 1 1.832 4.164 2.665 6.995l7.161-.166h.167v-.167c-3.331-6.995-5.496-15.156-6.662-23.15z" fill="#fff"/>
<path d="M662.945 166.383c-.833-1.666-1.832-5.164-2.498-6.662-.667-1.333-2.665-4.997-3.664-6.163-2.166-2.498-2.665-2.665-3.331-5.996-1.166-5.662-3.998-15.655-7.495-22.65-1.832-3.664-4.83-6.662-7.495-9.327-2.332-2.332-7.661-6.162-8.66-5.996-8.828 1.666-11.492 10.326-15.656 17.155-2.332 3.83-4.663 6.995-6.495 10.992-1.666 3.664-1.499 7.828-4.331 10.992-2.831 3.165-4.83 6.662-6.162 10.826-.333.833-.999 9.16-1.832 11.159l12.991-.833c12.158.833 8.66 5.496 27.48 4.497l29.813-.999c-.833-2.832-2.166-5.996-2.665-6.995z" fill="url(#c)"/>
<path d="M749.55-31.81H572.675c-16.488 0-29.812 13.323-29.812 29.811v64.955c4.33-1.5 10.326-10.66 12.325-12.825 3.331-3.83 3.997-8.827 5.662-11.825 3.831-6.995 4.497-11.991 13.158-11.991 3.997 0 5.662 1 8.327 4.663 1.832 2.498 5.163 7.328 6.662 10.493 1.832 3.664 4.663 8.494 5.996 9.493.999.666 1.832 1.332 2.665 1.666 1.332.5 2.498-.5 3.497-1.166 1.166-1 1.666-2.832 2.831-5.496 1.666-3.831 3.331-8.161 4.331-9.827 1.665-2.665 2.331-5.996 4.163-7.494 2.665-2.332 6.329-2.499 7.329-2.665 5.496-1.166 7.994 2.664 10.659 4.996 1.832 1.666 4.164 4.83 5.996 8.994 1.332 3.33 2.997 6.495 3.83 8.327.666 1.832 2.332 4.83 3.331 8.494.999 3.165 3.331 5.663 4.33 7.328 0 0 1.499 3.998 10.16 7.662 1.832.832 5.663 2.165 7.994 2.831 3.831 1.332 7.495 1.166 12.158.666 3.331 0 5.163-4.83 6.662-8.66.833-2.332 1.832-8.828 2.332-10.66.5-1.832-.833-3.164.333-4.83 1.333-1.832 2.165-1.998 2.831-4.33 1.666-5.163 10.993-5.33 16.322-5.33 4.497 0 3.831 4.331 11.326 2.832 4.33-.833 8.494.5 12.99 1.832 3.831 1 7.495 2.165 9.66 4.663 1.333 1.666 4.83 9.827 1.333 10.16.333.333.666 1.166 1.165 1.499-.832 3.164-4.163.833-6.162.5-2.498-.5-4.33 0-6.828 1.165-4.331 1.832-10.493 1.666-14.324 4.83-3.164 2.665-3.164 8.494-4.663 11.825 0 0-4.164 10.493-12.991 16.988-2.331 1.666-6.828 5.663-16.488 7.162-4.33.666-8.494.666-12.991.5-2.165-.167-4.33-.167-6.495-.167-1.333 0-5.663-.167-5.496.333l-.5 1.166c0 .333.166 1.332.333 1.665.167 1 .167 1.832.333 2.665 0 1.832-.166 3.831 0 5.663.167 3.831 1.666 7.328 1.832 11.325.167 4.331 2.332 8.994 4.497 12.491.833 1.333 1.999 1.499 2.498 3.165.666 1.832 0 3.997.333 5.996 1.166 7.827 3.498 16.155 6.995 23.316v.167c4.331-.666 8.827-2.332 14.49-3.164 10.493-1.499 24.982-.833 34.309-1.666 23.65-2.165 36.474 9.66 57.626 4.83V-1.999c-.166-16.488-13.49-29.812-29.979-29.812zm-88.271 139.9c0-.333 0-.333 0 0z" fill="url(#b)"/>
<path d="M597.491 135.404c1.666-3.664 2.665-7.661 3.997-11.325 1.333-3.497 3.331-8.494 6.829-10.326-.5-.5-7.328-.666-9.16-.833-1.999-.166-3.998-.499-5.996-.832-3.664-.667-7.828-1.499-11.326-2.332-2.165-.5-9.659-3.165-11.158-3.831-3.831-1.665-6.329-6.495-9.161-5.995-1.832.333-3.664.999-4.829 2.831-1 1.499-1.333 4.164-1.999 5.996-.833 1.998-2.165 3.997-3.164 5.995-2.332 3.498-6.163 6.662-7.828 10.16-.333.833-.5 1.665-.833 2.498V167.548c1.999.333 3.997.667 6.162 1.333 16.655 4.497 20.652 4.83 36.974 2.998l1.499-.167c1.166-2.665 2.165-11.492 2.998-14.157.666-2.165 1.499-3.83 1.832-5.829.333-1.998 0-3.997-.166-5.829-.334-4.83 3.497-6.495 5.329-10.493z" fill="url(#a)"/>
<path d="M602.987 214.682c-2.332 0-4.497-.333-6.329-1.166-1.998-.833-3.497-1.999-4.996-3.498-1.333-1.499-2.498-3.497-3.165-5.662-.832-2.165-1.165-4.83-1.165-7.495 0-2.831.333-5.33 1.165-7.495.833-2.165 1.832-3.997 3.165-5.496 1.332-1.499 2.998-2.665 4.996-3.497 1.999-.833 3.997-1.166 6.329-1.166s4.497.333 6.329 1.166c1.999.832 3.498 1.998 4.997 3.497 1.332 1.499 2.498 3.331 3.164 5.663.833 2.165 1.166 4.663 1.166 7.495 0 2.831-.333 5.329-1.166 7.494s-1.832 4.164-3.164 5.663c-1.333 1.499-2.998 2.665-4.997 3.497-1.832.667-3.997 1-6.329 1zm0-6.662c2.332 0 4.164-1 5.663-2.998 1.332-1.999 1.998-4.83 1.998-8.328 0-3.497-.666-6.162-1.998-8.16-1.333-1.999-3.331-2.832-5.663-2.832-2.332 0-4.164.999-5.662 2.832-1.333 1.998-1.999 4.663-1.999 8.16 0 3.498.666 6.329 1.999 8.328 1.498 1.998 3.33 2.998 5.662 2.998zM621.474 197.028c0-2.832.5-5.33 1.333-7.662.832-2.165 1.998-4.163 3.497-5.662 1.499-1.499 3.331-2.665 5.163-3.498 1.999-.833 4.164-1.166 6.329-1.166s4.164.5 5.829 1.333c1.666.832 3.165 1.998 4.33 3.164l-4.33 4.83c-.833-.833-1.832-1.499-2.665-1.832-.832-.5-1.998-.666-3.164-.666-1.166 0-2.332.333-3.331.832-.999.5-1.999 1.166-2.665 2.166-.833.999-1.332 2.165-1.832 3.497-.5 1.333-.666 2.998-.666 4.664 0 3.497.833 6.328 2.332 8.327 1.499 1.999 3.497 2.998 6.162 2.998 1.332 0 2.665-.333 3.664-.833.999-.5 1.999-1.332 2.831-2.165l4.331 4.663c-1.499 1.666-3.165 2.998-4.997 3.831-1.832.833-3.83 1.332-5.996 1.332-2.165 0-4.33-.333-6.328-1.165-1.999-.833-3.665-1.832-5.163-3.331-1.499-1.499-2.665-3.331-3.498-5.497-.833-2.664-1.166-5.329-1.166-8.16zM651.286 206.854c0-2.831 1.166-4.83 3.498-6.495 2.332-1.499 6.162-2.665 11.325-3.165 0-1.166-.499-2.165-.999-2.831-.666-.666-1.666-1-2.998-1-1.166 0-2.332.167-3.331.667-1.166.499-2.332.999-3.664 1.665l-2.831-5.163c1.665-.999 3.497-1.832 5.329-2.498 1.832-.666 3.831-.999 5.829-.999 3.331 0 5.996.999 7.828 2.831 1.832 1.999 2.665 4.996 2.665 8.994v14.989h-6.329l-.666-2.665h-.167c-1.165.999-2.331 1.832-3.497 2.332-1.332.666-2.665.999-4.164.999-1.166 0-2.331-.166-3.164-.666-1-.333-1.832-.999-2.498-1.666-.667-.666-1.166-1.498-1.499-2.498-.5-.666-.667-1.832-.667-2.831zm7.329-.666c0 .832.333 1.499.832 1.832.5.333 1.333.666 2.165.666 1 0 1.666-.167 2.332-.5.666-.333 1.333-.999 1.999-1.665v-4.664c-2.832.334-4.664 1-5.829 1.666-.833.833-1.499 1.665-1.499 2.665zM678.434 188.367h6.329l.499 3.331h.167c1.166-1.166 2.332-1.999 3.497-2.831 1.166-.833 2.665-1.166 4.497-1.166 1.832 0 3.331.333 4.497 1.166 1.166.832 1.999 1.832 2.665 3.331a33.31 33.31 0 013.664-3.165c1.332-.833 2.831-1.332 4.663-1.332 2.832 0 4.83.999 6.163 2.831 1.332 1.832 1.998 4.497 1.998 7.828v16.322h-7.661v-15.323c0-1.832-.333-3.164-.833-3.997-.499-.666-1.332-.999-2.498-.999-1.332 0-2.831.832-4.497 2.498v17.821h-7.828v-15.323c0-1.832-.333-3.164-.832-3.997-.5-.666-1.333-.999-2.499-.999-1.332 0-2.831.832-4.496 2.498v17.821h-7.828v-26.315h.333zM721.737 176.875h7.827v29.313c0 .832.167 1.332.5 1.665.333.333.666.5.999.5h.5c.167 0 .333 0 .5-.167l.999 5.83c-.5.166-.999.333-1.666.499-.666.167-1.498.167-2.331.167-1.333 0-2.498-.167-3.331-.666-.999-.5-1.666-1-2.165-1.833-.5-.832-1-1.665-1.166-2.831-.167-.999-.333-2.332-.333-3.664l-.333-28.813z" fill="#494545"/>
</g>
<defs>
<filter id="i" x="0" y="0" width="218" height="220" color-interpolation-filters="sRGB" filterUnits="userSpaceOnUse">
<feFlood flood-opacity="0" result="BackgroundImageFix"/>
<feBlend in="SourceGraphic" in2="BackgroundImageFix" result="shape"/>
<feColorMatrix in="SourceAlpha" result="hardAlpha" values="0 0 0 0 0 0 0 0 0 0 0 0 0 0 0 0 0 0 127 0"/>
<feOffset dy="2"/>
<feGaussianBlur stdDeviation="2"/>
<feComposite in2="hardAlpha" k2="-1" k3="1" operator="arithmetic"/>
<feColorMatrix values="0 0 0 0 0 0 0 0 0 0 0 0 0 0 0 0 0 0 0.02 0"/>
<feBlend in2="shape" result="effect1_innerShadow"/>
</filter>
<filter id="h" x="54.524" y="115.34" width="153.27" height="85.484" color-interpolation-filters="sRGB" filterUnits="userSpaceOnUse">
<feFlood flood-opacity="0" result="BackgroundImageFix"/>
<feBlend in="SourceGraphic" in2="BackgroundImageFix" result="shape"/>
<feColorMatrix in="SourceAlpha" result="hardAlpha" values="0 0 0 0 0 0 0 0 0 0 0 0 0 0 0 0 0 0 127 0"/>
<feOffset dy="2"/>
<feGaussianBlur stdDeviation="2"/>
<feComposite in2="hardAlpha" k2="-1" k3="1" operator="arithmetic"/>
<feColorMatrix values="0 0 0 0 0 0 0 0 0 0 0 0 0 0 0 0 0 0 0.02 0"/>
<feBlend in2="shape" result="effect1_innerShadow"/>
</filter>
<filter id="g" x="270" y="-1.674" width="218" height="219.67" color-interpolation-filters="sRGB" filterUnits="userSpaceOnUse">
<feFlood flood-opacity="0" result="BackgroundImageFix"/>
<feBlend in="SourceGraphic" in2="BackgroundImageFix" result="shape"/>
<feColorMatrix in="SourceAlpha" result="hardAlpha" values="0 0 0 0 0 0 0 0 0 0 0 0 0 0 0 0 0 0 127 0"/>
<feOffset dy="-1.674"/>
<feGaussianBlur stdDeviation="1.674"/>
<feComposite in2="hardAlpha" k2="-1" k3="1" operator="arithmetic"/>
<feColorMatrix values="0 0 0 0 0 0 0 0 0 0 0 0 0 0 0 0 0 0 0.2 0"/>
<feBlend in2="shape" result="effect1_innerShadow"/>
</filter>
<filter id="f" x="388.5" y="48.739" width="61.234" height="62.907" color-interpolation-filters="sRGB" filterUnits="userSpaceOnUse">
<feFlood flood-opacity="0" result="BackgroundImageFix"/>
<feColorMatrix in="SourceAlpha" values="0 0 0 0 0 0 0 0 0 0 0 0 0 0 0 0 0 0 127 0"/>
<feOffset dx="2.12" dy="2.12"/>
<feGaussianBlur stdDeviation="2"/>
<feColorMatrix values="0 0 0 0 0 0 0 0 0 0 0 0 0 0 0 0 0 0 0.15 0"/>
<feBlend in2="BackgroundImageFix" result="effect1_dropShadow"/>
<feBlend in="SourceGraphic" in2="effect1_dropShadow" result="shape"/>
<feColorMatrix in="SourceAlpha" result="hardAlpha" values="0 0 0 0 0 0 0 0 0 0 0 0 0 0 0 0 0 0 127 0"/>
<feOffset dx="-3.347" dy="-5.021"/>
<feGaussianBlur stdDeviation="4.24"/>
<feComposite in2="hardAlpha" k2="-1" k3="1" operator="arithmetic"/>
<feColorMatrix values="0 0 0 0 0.909804 0 0 0 0 0.309804 0 0 0 0 0.309804 0 0 0 0.25 0"/>
<feBlend in2="shape" result="effect2_innerShadow"/>
</filter>
<filter id="e" x="323.61" y="47.863" width="47.385" height="122.43" color-interpolation-filters="sRGB" filterUnits="userSpaceOnUse">
<feFlood flood-opacity="0" result="BackgroundImageFix"/>
<feBlend in="SourceGraphic" in2="BackgroundImageFix" result="shape"/>
<feColorMatrix in="SourceAlpha" result="hardAlpha" values="0 0 0 0 0 0 0 0 0 0 0 0 0 0 0 0 0 0 127 0"/>
<feOffset dx="-3.35" dy="-5.021"/>
<feGaussianBlur stdDeviation="4.24"/>
<feComposite in2="hardAlpha" k2="-1" k3="1" operator="arithmetic"/>
<feColorMatrix values="0 0 0 0 0.909804 0 0 0 0 0.309804 0 0 0 0 0.309804 0 0 0 0.25 0"/>
<feBlend in2="shape" result="effect1_innerShadow"/>
</filter>
<linearGradient id="d" x1="379" x2="457.54" y2="210.89" gradientUnits="userSpaceOnUse">
<stop stop-color="#E84F4F" offset="0"/>
<stop stop-color="#DB4646" offset=".409"/>
<stop stop-color="#CB3939" offset=".999"/>
</linearGradient>
<linearGradient id="c" x1="630.42" x2="630.42" y1="109.6" y2="174.33" gradientUnits="userSpaceOnUse">
<stop stop-color="#F29104" offset="0"/>
<stop stop-color="#EC6813" offset="1"/>
</linearGradient>
<linearGradient id="b" x1="661.15" x2="661.15" y1="-31.835" y2="174.28" gradientUnits="userSpaceOnUse">
<stop stop-color="#F29104" offset="0"/>
<stop stop-color="#EC6813" offset="1"/>
</linearGradient>
<linearGradient id="a" x1="575.54" x2="575.54" y1="99.79" y2="172.86" gradientUnits="userSpaceOnUse">
<stop stop-color="#F29104" offset="0"/>
<stop stop-color="#EC6813" offset="1"/>
</linearGradient>
<clipPath id="j">
<path transform="translate(535)" d="M0 0h236v236H0z" fill="#fff"/>
</clipPath>
</defs>
</svg>